<svg xmlns="http://www.w3.org/2000/svg" xmlns:xlink="http://www.w3.org/1999/xlink" aria-hidden="true" focusable="false" width="1em" height="1em" style="-ms-transform: rotate(360deg); -webkit-transform: rotate(360deg); transform: rotate(360deg);" preserveAspectRatio="xMidYMid meet" viewBox="0 0 24 24"><path d="M12 11a1 1 0 0 0-1 1v4a1 1 0 0 0 2 0v-4a1 1 0 0 0-1-1zm.38-3.92a1 1 0 0 0-.76 0a1 1 0 0 0-.33.21a1.15 1.15 0 0 0-.21.33A.84.84 0 0 0 11 8a1 1 0 0 0 .29.71a1.15 1.15 0 0 0 .33.21A1 1 0 0 0 13 8a1.05 1.05 0 0 0-.29-.71a1 1 0 0 0-.33-.21zM12 2a10 10 0 1 0 10 10A10 10 0 0 0 12 2zm0 18a8 8 0 1 1 8-8a8 8 0 0 1-8 8z" fill="#626262"/></svg>
